Coordinates
version=1
nRows=16
nColumns=36
inDegrees=yes

Units are S.I. units (second, meters, Newtons, ...)
Angles are in degrees.

endheader
time	pelvis_tilt	pelvis_list	pelvis_rotation	pelvis_tx	pelvis_ty	pelvis_tz	hip_flexion_r	hip_adduction_r	hip_rotation_r	knee_angle_r	ankle_angle_r	subtalar_angle_r	hip_flexion_l	hip_adduction_l	hip_rotation_l	knee_angle_l	ankle_angle_l	subtalar_angle_l	lumbar_extension	lumbar_bending	lumbar_rotation	arm_flex_r	arm_add_r	arm_rot_r	elbow_flex_r	pro_sup_r	wrist_flex_r	wrist_dev_r	arm_flex_l	arm_add_l	arm_rot_l	elbow_flex_l	pro_sup_l	wrist_flex_l	wrist_dev_l
      2.35000000	      1.07266607	     -6.75226869	      2.12732610	     -0.34592325	      0.90324698	      0.25665005	     19.82196222	     10.57564109	     -5.44410313	    -26.86035983	      1.34083210	     -7.23681734	      1.68094249	     -6.27859414	      4.65392747	    -59.03261385	    -10.62845581	      4.98864510	     -4.51795632	      9.95546433	     -6.62108292	     -7.11692967	    -17.88328872	     11.94687152	     21.21130312	     86.51662706	      0.00000000	      0.00000000	     -3.19149086	    -14.99172422	     12.03077830	     29.26625515	     86.51662706	      0.00000000	      0.00000000
      2.36000000	      1.14438398	     -6.67747601	      2.45703363	     -0.33387078	      0.90539737	      0.25709876	     18.55707204	     10.45566685	     -6.00399811	    -26.30020827	      2.17340246	     -6.43519641	      3.70753053	     -5.88190140	      5.36692695	    -60.91945605	     -9.09923413	      4.38445769	     -4.70984094	      9.88173745	     -6.47442737	     -6.84009788	    -18.03677663	     12.11865036	     21.87762224	     86.51662706	      0.00000000	      0.00000000	     -3.08063546	    -14.90604712	     12.62193540	     28.71073698	     86.51662706	      0.00000000	      0.00000000
      2.37000000	      1.19431658	     -6.51802204	      2.75764933	     -0.32186578	      0.90760350	      0.25755483	     17.27425906	     10.26304696	     -6.55713511	    -25.66099164	      2.92286565	     -5.61184077	      5.70302601	     -5.35859818	      6.02003032	    -62.40810174	     -7.47044284	      3.95175514	     -4.87914516	      9.70282919	     -6.30076293	     -6.56130831	    -18.19294124	     12.29699117	     22.56290230	     86.51662706	      0.00000000	      0.00000000	     -2.98886161	    -14.83968302	     13.19588926	     28.15126840	     86.51662706	      0.00000000	      0.00000000
      2.38000000	      1.22019075	     -6.28490497	      3.00702008	     -0.30983546	      0.90982569	      0.25804247	     15.98185029	     10.01926844	     -7.04370772	    -24.96666539	      3.59970119	     -4.80547185	      7.64614966	     -4.74288270	      6.57258292	    -63.49170832	     -5.82870434	      3.64176874	     -5.02092451	      9.43155486	     -6.08455676	     -6.28457141	    -18.35070681	     12.47270732	     23.26341738	     86.51662706	      0.00000000	      0.00000000	     -2.93702442	    -14.78819515	     13.72383846	     27.60281457	     86.51662706	      0.00000000	      0.00000000
      2.39000000	      1.22170274	     -5.99086821	      3.18959457	     -0.29775822	      0.91202881	      0.25858269	     14.68645610	      9.74360901	     -7.40962404	    -24.23658659	      4.21361501	     -4.05334032	      9.52216781	     -4.07476914	      6.98747652	    -64.17522593	     -4.22974638	      3.38894592	     -5.13543185	      9.08377068	     -5.81552246	     -6.01173386	    -18.50982513	     12.63546983	     23.97738698	     86.51662706	      0.00000000	      0.00000000	     -2.93789815	    -14.74659311	     14.18200695	     27.07783889	     86.51662706	      0.00000000	      0.00000000
      2.40000000	      1.20059731	     -5.64995505	      3.29528984	     -0.28564892	      0.91417483	      0.25920012	     13.39476012	      9.45302244	     -7.61425747	    -23.48480212	      4.77295364	     -3.38768363	     11.32227173	     -3.39437307	      7.23734011	    -64.47096876	     -2.70817527	      3.12503261	     -5.22687467	      8.67630444	     -5.48899211	     -5.74247762	    -18.67135805	     12.77525859	     24.70449335	     86.51662706	      0.00000000	      0.00000000	     -2.99552999	    -14.71012066	     14.55370189	     26.58442330	     86.51662706	      0.00000000	      0.00000000
      2.41000000	      1.16061415	     -5.27695331	      3.31909310	     -0.27353689	      0.91621078	      0.25992777	     12.11374988	      9.16215443	     -7.63645613	    -22.72109427	      5.28537708	     -2.83200058	     13.04101208	     -2.73615075	      7.31002466	    -64.39558146	     -1.28815529	      2.79187925	     -5.30154786	      8.22594312	     -5.10542301	     -5.47479216	    -18.83770860	     12.88374188	     25.44514875	     86.51662706	      0.00000000	      0.00000000	     -3.10641307	    -14.67501253	     14.83044866	     26.12527510	     86.51662706	      0.00000000	      0.00000000
      2.42000000	      1.10702628	     -4.88616007	      3.26149300	     -0.26144453	      0.91807976	      0.26078732	     10.84915154	      8.88304316	     -7.47770941	    -21.95247972	      5.75891225	     -2.39774386	     14.67354512	     -2.12513485	      7.21145497	    -63.96839806	      0.00926676	      2.35039111	     -5.36616870	      7.74925711	     -4.66946084	     -5.20549467	    -19.01217529	     12.95531669	     26.19970764	     86.51662706	      0.00000000	      0.00000000	     -3.26175990	    -14.63891834	     15.01210285	     25.69778033	     86.51662706	      0.00000000	      0.00000000
      2.43000000	      1.04617005	     -4.49039905	      3.12911740	     -0.24937143	      0.91973826	      0.26175833	      9.60290040	      8.62424847	     -7.16181352	    -21.18397756	      6.20267820	     -2.08214764	     16.21430476	     -1.57596246	      6.96469762	    -63.21036637	      1.16359717	      1.78445202	     -5.42710786	      7.26241560	     -4.18903528	     -4.93064738	    -19.19815642	     12.98764354	     26.96780636	     86.51662706	      0.00000000	      0.00000000	     -3.45001615	    -14.60090011	     15.10599309	     25.29498477	     86.51662706	      0.00000000	      0.00000000
      2.44000000	      0.98527328	     -4.10084467	      2.93469319	     -0.23729874	      0.92115319	      0.26278554	      8.37104429	      8.38986938	     -6.73091124	    -20.41841631	      6.62690703	     -1.86787665	     17.65728469	     -1.09428441	      6.60556443	    -62.14284341	      2.15601402	      1.09993579	     -5.49058198	      6.78053555	     -3.67470855	     -4.64600568	    -19.39825644	     12.98165103	     27.74794563	     86.51662706	      0.00000000	      0.00000000	     -3.65899242	    -14.56109666	     15.12529299	     24.90718721	     86.51662706	      0.00000000	      0.00000000
      2.45000000	      0.93237637	     -3.72716218	      2.69579640	     -0.22521441	      0.92229709	      0.26382696	      7.14334633	      8.17933597	     -6.23839420	    -19.65599962	      7.04222726	     -1.72493958	     18.99693951	     -0.67954710	      6.17620272	    -60.78633317	      2.97202303	      0.31989010	     -5.56329890	      6.31675051	     -3.13915215	     -4.34759959	    -19.61357693	     12.94109751	     28.53734572	     86.51662706	      0.00000000	      0.00000000	     -3.87736201	    -14.52020284	     15.08692201	     24.52375137	     86.51662706	      0.00000000	      0.00000000
      2.46000000	      0.89605912	     -3.37758174	      2.43244108	     -0.21312984	      0.92315628	      0.26487748	      5.90525115	      7.98870676	     -5.73993413	    -18.89451446	      7.45849349	     -1.61486620	     20.22843226	     -0.32777383	      5.71839147	    -59.15997495	      3.60383710	     -0.52240555	     -5.65278690	      5.88132926	     -2.59644527	     -4.03236705	    -19.84342039	     12.87183827	     29.33202250	     86.51662706	      0.00000000	      0.00000000	     -4.09558247	    -14.47889700	     15.00931923	     24.13476075	     86.51662706	      0.00000000	      0.00000000
      2.47000000	      0.88477225	     -3.05859837	      2.16398884	     -0.20106464	      0.92373389	      0.26594488	      4.64168859	      7.81340440	     -5.28466431	    -18.13056644	      7.88363871	     -1.49658661	     21.34704614	     -0.03336831	      5.26801247	    -57.28223785	      4.05187357	     -1.39071064	     -5.76696558	      5.48126610	     -2.06095221	     -3.69864971	    -20.08550007	     12.78096500	     30.12698389	     86.51662706	      0.00000000	      0.00000000	     -4.30643616	    -14.43734295	     14.91041648	     23.73223467	     86.51662706	      0.00000000	      0.00000000
      2.48000000	      0.90578374	     -2.77442405	      1.90625370	     -0.18902018	      0.92404082	      0.26702436	      3.34112631	      7.65103493	     -4.90854676	    -17.36162587	      8.32299602	     -1.33295797	     22.34792239	      0.21020718	      4.85162466	    -55.17218738	      4.32570526	     -2.25191718	     -5.91309376	      5.12063782	     -1.54581848	     -3.34636845	    -20.33653151	     12.67597315	     30.91644148	     86.51662706	      0.00000000	      0.00000000	     -4.50528885	    -14.39484946	     14.80606444	     23.31077576	     86.51662706	      0.00000000	      0.00000000
      2.49000000	      0.96404161	     -2.52679672	      1.66970552	     -0.17697323	      0.92408415	      0.26809532	      1.99835186	      7.50264046	     -4.63101696	    -16.58829166	      8.77932305	     -1.09663995	     23.22702014	      0.41030018	      4.48552873	    -52.85033399	      4.44474599	     -3.07993377	     -6.09643878	      4.80152146	     -1.06148120	     -2.97680383	    -20.59291852	     12.56408593	     31.69395986	     86.51662706	      0.00000000	      0.00000000	     -4.69000514	    -14.34975104	     14.70905199	     22.86766039	     86.51662706	      0.00000000	      0.00000000
      2.50000000	      1.06101787	     -2.31547498	      1.45923747	     -0.16489186	      0.92386469	      0.26913261	      0.61528459	      7.37187395	     -4.45491161	    -15.81604147	      9.25345595	     -0.77411241	     23.98286967	      0.57469249	      4.17705753	    -50.33863924	      4.43831354	     -3.85685956	     -6.31902781	      4.52495182	     -0.61470615	     -2.59206580	    -20.85128153	     12.45181115	     32.45251361	     86.51662706	      0.00000000	      0.00000000	     -4.86049503	    -14.29958690	     14.62874043	     22.40246038	     86.51662706	      0.00000000	      0.00000000
